<?xml version="1.0" encoding="utf-8"?>
<!-- Generator: Adobe Illustrator 21.1.0, SVG Export Plug-In . SVG Version: 6.00 Build 0)  -->
<svg version="1.1" id="Layer_1" xmlns="http://www.w3.org/2000/svg" xmlns:xlink="http://www.w3.org/1999/xlink" x="0px" y="0px"
	 viewBox="0 0 104.6 124.4" style="enable-background:new 0 0 104.6 124.4;" xml:space="preserve">
<style type="text/css">
	.st0{fill:#3E3A39;}
	.st1{fill:none;stroke:#3E3A39;stroke-width:18;stroke-linecap:round;stroke-linejoin:round;stroke-miterlimit:10;}
</style>
<g>
	<path class="st0" d="M15.7,124.4H3.1c-1.7,0-3.1-1.4-3.1-3.1V3.1C0,1.4,1.4,0,3.1,0h12.5c1.7,0,3.1,1.4,3.1,3.1v118.1
		C18.8,123,17.4,124.4,15.7,124.4z M6.3,118.1h6.3V6.3H6.3V118.1z"/>
	<path class="st0" d="M76.9,72H15.7c-1.7,0-3.1-1.4-3.1-3.1c0-1.7,1.4-3.1,3.1-3.1h58.1V21.9H15.7c-1.7,0-3.1-1.4-3.1-3.1
		c0-1.7,1.4-3.1,3.1-3.1h61.2c1.7,0,3.1,1.4,3.1,3.1v50.1C80,70.6,78.6,72,76.9,72z"/>
	<path class="st0" d="M101.4,90.8h-67c-1.7,0-3.1-1.4-3.1-3.1V68.9c0-1.7,1.4-3.1,3.1-3.1c1.7,0,3.1,1.4,3.1,3.1v15.7h60.7V40.7
		H76.9c-1.7,0-3.1-1.4-3.1-3.1c0-1.7,1.4-3.1,3.1-3.1h24.5c1.7,0,3.1,1.4,3.1,3.1v50.1C104.6,89.4,103.2,90.8,101.4,90.8z"/>
	<path class="st0" d="M34.5,90.8c-1.2,0-2.3-0.7-2.8-1.8c-0.7-1.6,0-3.4,1.5-4.2l42.5-18.8c1.6-0.7,3.4,0,4.2,1.5
		c0.7,1.6,0,3.4-1.5,4.2L35.8,90.5C35.3,90.7,34.9,90.8,34.5,90.8z"/>
	<path class="st1" d="M3.1,18.8"/>
	<path class="st0" d="M15.7,14.3H3.1c-1,0-1.7-0.8-1.7-1.7c0-1,0.8-1.7,1.7-1.7h12.5c1,0,1.7,0.8,1.7,1.7
		C17.4,13.5,16.6,14.3,15.7,14.3z"/>
</g>
</svg>
